<svg width="16" height="16" viewBox="0 0 16 16" fill="none" xmlns="http://www.w3.org/2000/svg">
<path d="M9.365 14.2288C9.365 14.2288 8.6525 14.1725 8.62375 13.755L8.21875 12.5788L9.98 10.9413C9.98 10.9413 11.2713 10.9163 11.345 10.9163C11.42 10.9163 11.7662 12.5788 11.7662 12.5788L11.1462 13.5963L9.365 14.2288Z" fill="#2F2F2F"/>
<path d="M9.3788 6.71636C9.41755 7.06136 9.4913 7.36261 9.73255 7.61636C9.9263 7.81886 10.1288 7.99136 10.3075 8.20761C10.8225 8.83136 11.69 9.04636 12.2225 9.70011C12.5775 10.1364 12.8188 10.6714 12.9413 11.2139C13.0788 11.8239 13.1638 12.4976 12.9938 13.0976C12.76 13.9201 12.0413 14.0201 11.29 14.1339C10.945 14.1864 10.5938 14.2164 10.2438 14.2264C9.96505 14.2339 9.64255 14.2689 9.3638 14.2301C9.12005 14.1951 9.0738 13.8651 9.14005 13.6714C9.21005 13.4626 9.42005 13.3839 9.6163 13.3464C9.71255 13.3276 9.8138 13.3551 9.9113 13.3389C10.0925 13.3101 10.1688 13.1914 10.1725 13.0101C10.1763 12.7626 10.2613 12.5564 10.375 12.3401C10.4263 12.2426 10.5125 12.1564 10.595 12.0826C10.6788 12.0051 10.8238 11.8989 10.7438 11.7639C10.6063 11.5289 10.1888 11.7451 10.0475 11.8464C9.8288 12.0014 9.6738 12.2364 9.6063 12.4951C9.51005 12.8539 9.4363 12.8776 9.1013 13.0051C8.9038 13.0814 8.7213 13.2076 8.6463 13.4039C8.55505 13.6476 8.70755 13.9351 8.55005 14.1476C8.4263 14.3176 8.1863 14.4114 7.9663 14.4026C7.3988 14.3776 7.0188 14.2389 7.13755 13.6614C7.21255 13.2989 7.1888 12.9014 7.2113 12.5251C7.2188 12.3839 7.23255 12.1676 7.0913 12.0689C7.0363 12.0289 6.96005 12.0226 6.8963 12.0264C6.85255 12.0276 6.74255 12.0214 6.7013 12.0351C6.58005 12.0739 6.6088 12.2689 6.61005 12.3714C6.6113 12.5689 6.60755 12.7701 6.60255 12.9651C6.59755 13.1964 6.62255 13.4251 6.62505 13.6539C6.6263 13.8039 6.64005 13.9889 6.5163 14.0951C6.37505 14.2201 6.1588 14.2476 5.9663 14.2539C5.73505 14.2626 5.4713 14.2451 5.2788 14.1101C4.88505 13.8326 5.0188 13.1964 5.05505 12.8251C5.0788 12.5839 5.0613 12.3326 5.05505 12.0851C5.05005 11.8626 5.0438 11.6389 5.0388 11.4139C5.0363 11.3214 5.0238 11.2214 5.0288 11.1264C5.04755 10.8639 4.9938 10.5951 4.9863 10.3226C4.9738 9.82261 4.94755 9.31386 4.94755 8.80511C4.94755 8.58761 4.98505 8.34886 5.04755 8.14261C5.0813 8.03261 5.11755 7.88511 5.1763 7.78886C5.2688 7.63511 5.4288 7.49761 5.56255 7.37761C5.73505 7.22386 5.94005 7.14636 6.13755 7.02761C6.3938 6.87261 6.6613 6.72636 6.9388 6.60761C7.4263 6.40011 7.94755 6.22261 8.49255 6.20261C8.6838 6.19511 8.82755 6.16511 9.01255 6.12261C9.1988 6.08011 9.2913 6.20511 9.32505 6.38011C9.3538 6.48886 9.3663 6.60261 9.3788 6.71636ZM7.3913 3.11636C7.3913 3.11636 7.12505 2.79011 6.50505 1.89386C6.12255 1.33886 4.9163 -0.22364 4.3063 0.10011C3.36505 0.59761 3.47005 4.12261 3.47005 4.12261L7.3913 3.11636ZM7.7863 3.15886C7.7863 3.15886 8.11505 2.89636 8.90755 2.14636C9.3988 1.68386 10.9025 0.40761 11.4325 0.84886C12.25 1.53136 11.4138 4.95761 11.4138 4.95761L7.7863 3.15886Z" fill="#F79329"/>
<path d="M11.9138 6.48501C11.9551 5.39626 11.4476 4.21626 10.5538 3.42376C9.8313 2.78126 8.7588 2.38001 7.68005 2.26876C6.6013 2.15376 5.47005 2.32376 4.63005 2.80001C3.59005 3.39001 2.85005 4.43751 2.66255 5.51251C2.48505 6.53251 2.58505 7.58876 3.4663 8.40376C3.95505 8.85501 4.5863 9.19376 5.2513 9.41001C5.5038 9.49251 6.1588 9.69126 6.85755 9.76501C7.5588 9.83876 8.3038 9.78751 8.5688 9.75876C9.2638 9.68501 9.95255 9.48626 10.5238 9.14751C11.5576 8.53251 11.8751 7.52001 11.9138 6.48501" fill="#F79329"/>
<path d="M5.72753 6.07754C5.68503 6.47879 5.36128 6.77379 5.00503 6.73629C4.64878 6.69879 4.39253 6.34379 4.43503 5.94129C4.47753 5.53879 4.80128 5.24379 5.15753 5.28129C5.51378 5.32004 5.76878 5.67504 5.72753 6.07754ZM8.73378 6.39379C8.69128 6.79504 8.94628 7.15129 9.30253 7.18879C9.65878 7.22629 9.98253 6.93129 10.025 6.53004C10.0675 6.12754 9.81253 5.77129 9.45628 5.73379C9.09878 5.69754 8.77628 5.99129 8.73378 6.39379ZM7.09003 8.08629C7.08378 8.08629 7.07628 8.08629 7.07003 8.08504C6.96378 8.07379 6.88628 7.97879 6.89753 7.87129L6.97253 7.15754C6.98378 7.05129 7.08003 6.97879 7.18628 6.98504C7.29253 6.99629 7.37003 7.09129 7.35878 7.19879L7.28378 7.91129C7.27253 8.01129 7.18878 8.08629 7.09003 8.08629Z" fill="#2F2F2F"/>
<path d="M6.52383 8.55252C6.32758 8.55127 6.13008 8.49127 5.98633 8.38127C5.87258 8.29377 5.69133 8.02877 5.87758 7.92752C5.90758 7.91127 5.94133 7.90252 5.97508 7.89877C6.02883 7.89127 6.07258 7.90502 6.11758 7.93877C6.19008 7.99252 6.25133 8.08877 6.34133 8.10627C6.62258 8.16377 6.86508 8.02002 6.93258 7.73752C6.95008 7.66127 6.95633 7.62502 7.04633 7.61627C7.26508 7.59627 7.31758 7.87127 7.25758 8.03502C7.20383 8.18127 7.13383 8.33877 6.99758 8.42627C6.85758 8.51502 6.68883 8.55377 6.52383 8.55252Z" fill="#2F2F2F"/>
<path d="M7.54749 8.64497C7.74124 8.67997 7.94624 8.65622 8.10874 8.57497C8.23624 8.50872 8.46374 8.28247 8.29874 8.14872C8.19499 8.06497 8.10374 8.09872 8.00249 8.16372C7.74499 8.32997 7.39249 8.21247 7.30624 7.91247C7.28749 7.84372 7.31374 7.73497 7.28249 7.67372C7.26749 7.64497 7.24374 7.65122 7.20874 7.63872C7.18499 7.62997 7.16999 7.61997 7.14374 7.61872C7.02249 7.61122 6.95249 7.74122 6.93374 7.84372C6.92374 7.89872 6.91249 7.94497 6.92124 7.99997C6.94749 8.15497 6.98749 8.32122 7.10624 8.43247C7.22624 8.54747 7.38499 8.61497 7.54749 8.64497Z" fill="#2F2F2F"/>
<path d="M6.50001 7.20367C6.49626 7.33742 6.57251 7.48492 6.70126 7.58492C6.80626 7.66617 6.96126 7.71867 7.11501 7.73367C7.26876 7.74992 7.43126 7.73117 7.55001 7.67492C7.69751 7.60367 7.80251 7.47617 7.82626 7.34367C7.85001 7.21867 7.83376 7.08617 7.70501 6.98367C7.63501 6.92617 7.54376 6.88367 7.44751 6.85617C7.41251 6.84492 7.31751 6.81867 7.21751 6.80867C7.11626 6.79742 7.01001 6.80242 6.97251 6.80617C6.87376 6.81367 6.77501 6.83742 6.69376 6.87742C6.54751 6.95117 6.50376 7.07492 6.50001 7.20367Z" fill="#2F2F2F"/>
<path d="M12.205 12.4062C12.3575 12.3049 12.5175 12.3499 12.6875 12.3699C13.42 12.4549 14.25 13.0974 14.28 13.8624C14.3163 14.8449 13.4425 15.5549 12.5725 15.7887C11.9388 15.9587 11.2525 15.9587 10.6 15.9324C10.315 15.9212 9.80002 15.9687 9.54877 15.8087C9.45877 15.7524 9.38002 15.6349 9.33877 15.5387C9.18752 15.1874 9.49252 14.9424 9.81877 14.9437C10.0563 14.9449 10.2938 14.9487 10.5325 14.9462C11.0525 14.9424 11.575 14.9812 12.0888 14.8787C12.5563 14.7862 13.2413 14.4199 13.2125 13.8499C13.1913 13.4312 12.7263 13.3487 12.3913 13.2987C12.3063 13.2862 12.2225 13.2587 12.125 13.2562C11.9338 13.2512 11.9425 13.0712 11.9563 12.9312C11.9763 12.7324 12.0075 12.5662 12.1738 12.4299C12.18 12.4224 12.1925 12.4137 12.205 12.4062ZM2.96877 6.21495C2.95627 6.21495 2.94377 6.2137 2.93127 6.2112L1.90377 6.00995C1.79877 5.98995 1.73002 5.88745 1.75127 5.78245C1.77127 5.67745 1.87627 5.60745 1.97877 5.62995L3.00627 5.83245C3.11127 5.85245 3.18002 5.95495 3.15877 6.0587C3.14002 6.14995 3.05877 6.21495 2.96877 6.21495ZM1.91252 7.00245C1.81627 7.00245 1.73377 6.9312 1.72127 6.8337C1.70627 6.72745 1.78127 6.6312 1.88752 6.6162L2.92627 6.47995C3.03002 6.46495 3.12877 6.53995 3.14377 6.6462C3.15752 6.75245 3.08252 6.84995 2.97752 6.8637L1.93877 6.99995C1.93002 7.00245 1.92252 7.00245 1.91252 7.00245ZM2.21877 7.87745C2.13502 7.87745 2.05752 7.82245 2.03252 7.7362C2.00252 7.6337 2.06252 7.52745 2.16627 7.49745L3.17252 7.20995C3.27502 7.1812 3.38252 7.23995 3.41252 7.3437C3.44127 7.4462 3.38252 7.5537 3.27877 7.58245L2.27252 7.86995C2.25377 7.87495 2.23627 7.87745 2.21877 7.87745ZM11.4638 6.9637C11.3663 6.9637 11.2825 6.88995 11.2713 6.7912C11.2657 6.74015 11.2805 6.68896 11.3127 6.64888C11.3448 6.60879 11.3915 6.5831 11.4425 6.57745L12.4838 6.4612C12.5875 6.45245 12.6863 6.5262 12.6975 6.63245C12.71 6.73995 12.6325 6.83495 12.5263 6.8462L11.485 6.96245C11.4775 6.96245 11.47 6.9637 11.4638 6.9637ZM12.4488 7.83745C12.435 7.83745 12.4213 7.8362 12.4063 7.83245L11.3838 7.6087C11.3338 7.59763 11.2902 7.56722 11.2626 7.52412C11.2349 7.48103 11.2255 7.42874 11.2363 7.3787C11.26 7.27495 11.3625 7.2087 11.4663 7.2312L12.49 7.45495C12.5938 7.47745 12.6613 7.5812 12.6375 7.68495C12.6188 7.77495 12.5375 7.83745 12.4488 7.83745ZM12.0725 8.68245C12.05 8.68245 12.0263 8.6787 12.0038 8.66995L11.025 8.29995C10.925 8.26245 10.8738 8.14995 10.9125 8.04995C10.95 7.94995 11.0625 7.89995 11.1625 7.93745L12.1425 8.30745C12.2425 8.3462 12.2925 8.45745 12.255 8.55745C12.225 8.63495 12.1513 8.68245 12.0725 8.68245Z" fill="#F79329"/>
<path d="M4.50005 1.56503C4.4088 1.80253 4.22505 2.48628 4.34005 2.97253C4.3738 3.11753 4.5588 3.18253 4.69005 3.12003C4.9638 2.98878 5.3913 2.75753 5.5513 2.67753C5.8238 2.54378 5.91755 2.37753 5.77005 2.17378C5.58255 1.91378 5.11505 1.37503 4.8388 1.32253C4.6813 1.29253 4.56005 1.41128 4.50005 1.56503ZM10.9501 2.22253C11.0013 2.47253 11.0663 3.17628 10.8713 3.63878C10.8138 3.77503 10.6201 3.80878 10.5013 3.72503C10.2538 3.55003 9.87255 3.25003 9.7263 3.14503C9.4813 2.96753 9.41505 2.78753 9.59505 2.61128C9.82255 2.38628 10.3738 1.93253 10.6551 1.92753C10.8163 1.92378 10.9176 2.06128 10.9501 2.22253Z" fill="#FCD4B5"/>
</svg>
