<svg width="27" height="26" viewBox="0 0 27 26" fill="none" xmlns="http://www.w3.org/2000/svg">
<path d="M15.6322 6.74554V10.728C12.7082 10.7804 11.4926 11.9961 11.4402 14.92H7.45775C4.31375 14.92 3.05615 13.6624 3.05615 10.5184L3.05615 6.74554C3.05615 3.60154 4.31375 2.34399 7.45775 2.34399L11.2306 2.34399C14.3746 2.34399 15.6322 3.60154 15.6322 6.74554Z" stroke="#141415" stroke-width="1.572" stroke-linecap="round" stroke-linejoin="round"/>
<path d="M8.25427 6.39965C7.69883 6.02237 6.96523 6.02239 6.40979 6.42063" stroke="#141415" stroke-width="1.572" stroke-miterlimit="10" stroke-linecap="round" stroke-linejoin="round"/>
<path d="M12.4462 6.39965C11.8907 6.02237 11.1571 6.02239 10.6017 6.42063" stroke="#141415" stroke-width="1.572" stroke-miterlimit="10" stroke-linecap="round" stroke-linejoin="round"/>
<path d="M9.51181 12.2162H7.08045C6.76605 12.2162 6.51453 11.9646 6.51453 11.6502C6.51453 10.0887 7.78261 8.82068 9.34413 8.82068C10.0148 8.82068 10.6332 9.0512 11.1152 9.43896" stroke="#141415" stroke-width="1.572" stroke-miterlimit="10" stroke-linecap="round" stroke-linejoin="round"/>
<path d="M24.0161 15.1295V18.9024C24.0161 22.0464 22.7585 23.3039 19.6145 23.3039H15.8417C12.6977 23.3039 11.4401 22.0464 11.4401 18.9024V14.9199C11.4925 11.996 12.7081 10.7803 15.6321 10.7279H19.6145C22.7585 10.7279 24.0161 11.9855 24.0161 15.1295Z" stroke="#141415" stroke-width="1.572" stroke-linecap="round" stroke-linejoin="round"/>
<path d="M16.6383 14.5218C16.0829 14.8991 15.3493 14.8991 14.7938 14.5009" stroke="#141415" stroke-width="1.572" stroke-miterlimit="10" stroke-linecap="round" stroke-linejoin="round"/>
<path d="M20.8303 14.5218C20.2749 14.8991 19.5413 14.8991 18.9858 14.5009" stroke="#141415" stroke-width="1.572" stroke-miterlimit="10" stroke-linecap="round" stroke-linejoin="round"/>
<path d="M15.4645 17.2046H19.9918C20.3062 17.2046 20.5578 17.456 20.5578 17.7704C20.5578 19.3319 19.2897 20.6001 17.7282 20.6001C16.1666 20.6001 14.8986 19.3319 14.8986 17.7704C14.8986 17.456 15.1501 17.2046 15.4645 17.2046Z" stroke="#141415" stroke-width="1.572" stroke-miterlimit="10" stroke-linecap="round" stroke-linejoin="round"/>
</svg>
