<svg width="22" height="24" viewBox="0 0 22 24" fill="none" xmlns="http://www.w3.org/2000/svg">
<path d="M14.8578 0.165402C14.2992 -0.736111 13.963 2.26843 14.6339 3.84646C15.304 5.42448 8.37605 4.67372 7.59364 6.47674C6.81122 8.27977 7.92906 9.40704 6.81122 9.9703C6.07715 10.3401 4.47661 10.5051 3.11556 10.7376C2.91327 10.6041 2.66932 10.5321 2.4105 10.5546L1.52024 10.6326C0.905163 10.6866 0.450737 11.2333 0.504286 11.8536C0.524367 12.0831 0.611385 12.2901 0.744515 12.4581C0.798808 13.3993 1.38041 14.6076 2.00665 15.3794C3.01293 16.6184 2.34877 19.0522 9.9989 17.6999C9.9989 17.6999 8.93535 21.408 9.15921 24H21.2287C21.2287 24 19.4407 16.0551 21.2287 11.7726C23.0151 7.49001 15.4163 1.06692 14.8578 0.165402ZM10.9992 10.0558C10.3968 10.0558 9.90816 9.56304 9.90816 8.95553C9.90816 8.34727 10.3968 7.85527 10.9992 7.85527C11.6024 7.85527 12.0903 8.34802 12.0903 8.95553C12.0903 9.56304 11.6017 10.0558 10.9992 10.0558Z" fill="#C8C8C8"/>
</svg>
