<svg width="16" height="16" viewBox="0 0 16 16" fill="none" xmlns="http://www.w3.org/2000/svg">
<path d="M3.61747 7.89368C3.61747 7.89368 3.31872 8.75618 3.49372 9.67118C3.66997 10.5862 3.91622 11.4312 3.91622 11.4312C3.91622 11.4312 3.96872 13.2262 3.91622 13.4199C3.86372 13.6137 3.45872 13.8599 3.45872 14.2124C3.45872 14.5649 3.58747 15.0099 4.23872 15.1162C4.88997 15.2224 5.41747 15.0049 5.63497 14.7412C5.94872 14.3599 5.88747 14.0899 5.88747 13.8087C5.88747 13.5274 5.90497 11.9087 5.97497 11.6612C6.04497 11.4149 6.15122 11.2737 6.34497 11.2912C6.53872 11.3087 6.74997 11.6074 6.76747 12.1712C6.78497 12.7337 6.80247 13.7199 6.78497 13.9137C6.76747 14.1074 6.59122 14.7587 6.73247 15.0224C6.87372 15.2862 7.51247 15.5424 8.00497 15.5149C8.64997 15.4799 9.03747 15.0749 9.07247 14.7587C9.10747 14.4424 8.89622 13.7199 8.89622 13.5087C8.89622 13.2974 9.14247 11.8549 9.21247 11.7662C9.28247 11.6787 9.49747 11.6974 9.96872 11.4849C10.3975 11.2912 10.6262 11.0974 10.6262 11.0974C10.6262 11.0974 10.6375 12.3474 10.62 12.4874C10.6025 12.6287 10.18 13.0687 10.25 13.4024C10.32 13.7362 10.7325 13.9312 11.1 13.9649C11.7212 14.0237 12.3262 13.5424 12.4837 13.1199C12.6425 12.6974 12.5712 12.1699 12.5362 11.8887C12.5012 11.6074 12.5012 10.6212 12.5362 10.3574C12.5712 10.0937 12.6287 9.93368 12.6512 9.79493C12.6862 9.56618 12.6775 9.31118 12.6775 9.31118C12.6775 9.31118 13.285 9.31118 13.645 9.07368C14.005 8.83618 14.3837 8.42243 14.5512 7.91243C14.715 7.41368 14.675 7.26118 14.5337 7.24368C14.3925 7.22618 13.76 8.11368 13.2225 8.14118C12.3687 8.18493 12.4537 7.26993 11.8025 6.71618C11.0687 6.09118 9.92497 6.01243 9.92497 6.01243C9.92497 6.01243 10.1225 5.27368 10.125 4.72743C10.1337 2.34243 8.97247 1.53368 8.97247 1.53368C8.97247 1.53368 7.57622 0.493684 5.99247 0.563684C4.40872 0.633684 3.24747 1.89243 3.24747 1.89243L2.37622 5.73743C2.37622 5.73743 2.59622 6.47618 2.94872 7.01368C3.31872 7.57618 3.61747 7.89368 3.61747 7.89368Z" fill="#FFD2B1"/>
<path d="M2.51751 1.04002C1.22376 1.06627 0.540005 2.16877 0.520005 2.84377C0.508755 3.24002 0.352505 6.12002 1.94501 6.17877C2.58376 6.20252 3.05876 5.46127 3.30001 4.62127C3.60376 3.56252 3.59001 2.50127 3.62501 2.21877C3.68126 1.76752 3.77501 1.43627 3.77501 1.43627C3.77501 1.43627 3.61751 1.01752 2.51751 1.04002ZM9.44251 0.600024C10.85 0.652524 11.33 1.27627 11.4663 1.63877C11.6163 2.03502 11.7475 3.44877 11.5275 4.39252C11.3488 5.16252 11.0788 5.55377 10.445 5.52752C9.86501 5.50377 9.57126 4.66752 9.13376 3.53002C8.71126 2.43002 8.38751 1.44502 8.33251 1.30377C8.26251 1.11877 8.11251 1.04002 8.11251 1.04002C8.11251 1.04002 8.39376 0.560024 9.44251 0.600024Z" fill="#865B52"/>
<path d="M7.83252 3.45887C7.13752 3.50262 6.80502 4.27512 6.95252 5.05137C7.11127 5.88762 7.66002 6.28387 8.35127 6.19512C9.10752 6.09887 9.33627 5.23637 9.24002 4.58512C9.15127 3.99262 8.81627 3.39637 7.83252 3.45887Z" fill="#D27856"/>
<path d="M8.64998 4.87504C8.64998 5.24004 8.44748 5.54504 8.12623 5.53629C7.68998 5.52379 7.57623 5.13754 7.58498 4.81254C7.59498 4.43254 7.82248 4.25254 8.14748 4.26129C8.43748 4.26754 8.64998 4.51004 8.64998 4.87504ZM4.98123 5.07629C4.98123 5.45629 4.77873 5.77379 4.45748 5.76379C4.02123 5.75129 3.90748 5.34879 3.91623 5.01004C3.92623 4.61379 4.19748 4.44504 4.45248 4.46379C4.74123 4.48504 4.98123 4.69629 4.98123 5.07629ZM6.65248 7.19879C6.65248 7.19879 7.41748 7.12004 7.38248 6.56504C7.34748 6.01129 6.82873 5.97504 6.42373 5.98379C6.01873 5.99254 5.43873 6.20379 5.49998 6.67004C5.56123 7.13629 6.22123 7.19754 6.22123 7.19754C6.22123 7.19754 6.21998 7.54254 5.99248 7.56754C5.74623 7.59379 5.39373 7.21504 5.29748 7.11879C5.20123 7.02254 5.05123 7.05754 4.99873 7.13629C4.94623 7.21504 4.98123 7.39129 5.13123 7.54129C5.28123 7.69129 5.63248 8.06879 5.98498 8.03379C6.33748 7.99879 6.34623 7.81379 6.48623 7.80504C6.62748 7.79629 6.61873 8.00754 6.96998 7.99879C7.21748 7.99254 7.71623 7.55754 7.80623 7.48004C8.00873 7.30379 8.06123 7.12754 7.97373 7.01379C7.88623 6.90004 7.63998 7.06629 7.50748 7.16379C7.37498 7.26004 7.16123 7.48754 6.95373 7.52504C6.60873 7.58629 6.65248 7.19879 6.65248 7.19879Z" fill="#060401"/>
<path d="M9.7763 6.37363C9.7763 6.37363 9.61005 6.73863 9.4713 7.03113C9.3038 7.38363 9.0638 7.69113 9.0638 7.69113C9.0638 7.69113 9.33505 9.54613 10.9488 9.38613C11.5263 9.32863 11.9638 8.87613 12.005 8.39613C12.075 7.58613 11.7676 7.20738 11.2901 6.83738C10.5163 6.23988 9.7763 6.37363 9.7763 6.37363ZM8.6588 9.27488C8.37255 9.53738 8.5263 10.0311 8.90505 10.0849C9.2838 10.1374 9.48755 9.82238 9.4588 9.58363C9.4163 9.21363 8.98505 8.97613 8.6588 9.27488ZM4.92005 8.78738C4.92005 8.78738 4.66755 9.47988 5.2013 10.3474C5.4288 10.7161 5.93505 10.9236 6.29255 10.9099C6.67005 10.8961 7.0113 10.7649 7.3038 10.3999C7.77005 9.81863 7.63755 8.85113 7.63755 8.85113C7.63755 8.85113 6.8988 9.15488 6.2213 9.13238C5.50005 9.10988 4.92005 8.78738 4.92005 8.78738ZM3.9988 14.0874C3.81505 14.0311 3.7413 14.3161 3.7288 14.4974C3.7163 14.6786 3.71755 14.9136 3.8813 14.9724C4.04505 15.0311 4.01255 14.6824 4.02755 14.5674C4.05755 14.3461 4.19255 14.1461 3.9988 14.0874ZM4.72005 14.1936C4.61005 14.1886 4.4938 14.2999 4.48005 14.6224C4.4688 14.8924 4.48005 15.1149 4.63255 15.1274C4.83755 15.1436 4.78005 14.8811 4.7913 14.6636C4.7963 14.5399 4.9488 14.2049 4.72005 14.1936ZM7.5188 14.5449C7.34255 14.5449 7.33755 14.7449 7.33755 14.9611C7.33755 15.1786 7.29255 15.4474 7.49005 15.4711C7.73005 15.4999 7.6838 15.1774 7.6838 14.9961C7.68255 14.8386 7.7113 14.5449 7.5188 14.5449ZM8.3163 14.5049C8.17505 14.5336 8.18755 14.7274 8.19255 14.9624C8.1988 15.1974 8.1638 15.4461 8.36255 15.4261C8.53255 15.4086 8.5213 15.1324 8.51505 14.9211C8.51005 14.7386 8.5338 14.4586 8.3163 14.5049ZM10.7326 12.9761C10.6113 12.9524 10.4738 13.0549 10.4388 13.3286C10.4101 13.5636 10.4213 13.7699 10.6263 13.8149C10.7313 13.8386 10.7501 13.5686 10.7551 13.3749C10.7613 13.2074 10.8851 13.0061 10.7326 12.9761ZM11.3951 13.1186C11.2788 13.0999 11.1651 13.1711 11.1351 13.4624C11.1176 13.6324 11.055 13.9374 11.2663 13.9486C11.43 13.9561 11.4175 13.6874 11.4325 13.5474C11.4563 13.3261 11.5863 13.1511 11.3951 13.1186Z" fill="#D27856"/>
</svg>
