<svg width="24" height="24" viewBox="0 0 24 24" fill="none" xmlns="http://www.w3.org/2000/svg">
<path fill-rule="evenodd" clip-rule="evenodd" d="M3.90033 8.67783V21.5998C3.90033 22.263 4.43706 22.7997 5.10033 22.7997H18.9003C19.5636 22.7997 20.1003 22.263 20.1003 21.5998V8.67783L12.6471 4.09123C12.2522 3.84866 11.7483 3.84866 11.3534 4.09123L3.90033 8.67783ZM7.84017 10.44C6.67299 10.44 5.70033 11.3657 5.70033 12.5399C5.70033 13.1317 5.94759 13.6614 6.34251 14.0399C5.9476 14.4184 5.70033 14.9481 5.70033 15.5399C5.70033 16.7141 6.67299 17.6398 7.84017 17.6398C8.79876 17.6398 9.6261 17.0141 9.89094 16.1398H14.4095C14.6744 17.0141 15.5017 17.6398 16.4603 17.6398C17.6275 17.6398 18.6001 16.7141 18.6001 15.5399C18.6001 14.9481 18.3529 14.4184 17.958 14.0399C18.3529 13.6614 18.6001 13.1317 18.6001 12.5399C18.6001 11.3657 17.6275 10.44 16.4603 10.44C15.5017 10.44 14.6744 11.0657 14.4095 11.9399H9.89094C9.6261 11.0657 8.79876 10.44 7.84017 10.44Z" fill="#C8C8C8"/>
<path fill-rule="evenodd" clip-rule="evenodd" d="M10.0842 0.540506C11.2549 -0.180169 12.7456 -0.180169 13.9161 0.540506L23.1234 6.20648C23.6648 6.5393 24 7.12521 24 7.7627C24 9.16892 22.4988 9.99624 21.3 9.40681V21.6C21.3 22.9254 20.2254 24 18.9 24H5.1C3.7746 24 2.7 22.9254 2.7 21.6V9.40681C1.50117 9.99624 0 9.16893 0 7.7627C0 7.12521 0.33516 6.5393 0.87657 6.20648L10.0842 0.540506ZM10.7125 1.56234C11.4988 1.07953 12.5019 1.07953 13.2882 1.56234L22.4946 7.22832C22.6891 7.34784 22.8004 7.55174 22.8004 7.76267C22.8004 8.23843 22.2379 8.58412 21.7692 8.29585L13.2765 3.06936C12.496 2.59006 11.5046 2.59006 10.7242 3.06936L2.23146 8.29585C1.76271 8.58414 1.20021 8.23843 1.20021 7.76267C1.20021 7.55174 1.31153 7.34785 1.50606 7.22832L10.7125 1.56234ZM3.90033 21.5998V8.67783L11.3534 4.09123C11.7483 3.84866 12.2522 3.84866 12.6471 4.09123L20.1003 8.67783V21.5998C20.1003 22.263 19.5636 22.7997 18.9003 22.7997H5.10033C4.43706 22.7997 3.90033 22.263 3.90033 21.5998Z" fill="#C8C8C8"/>
<path d="M13.2882 1.56234C12.5019 1.07953 11.4988 1.07953 10.7125 1.56234L1.50606 7.22832C1.31153 7.34785 1.20021 7.55174 1.20021 7.76267C1.20021 8.23843 1.76271 8.58414 2.23146 8.29585L10.7242 3.06936C11.5046 2.59006 12.496 2.59006 13.2765 3.06936L21.7692 8.29585C22.2379 8.58412 22.8004 8.23843 22.8004 7.76267C22.8004 7.55174 22.6891 7.34784 22.4946 7.22832L13.2882 1.56234Z" fill="#C8C8C8"/>
<path d="M7.84017 11.6399C7.30581 11.6399 6.90033 12.0571 6.90033 12.5399C6.90033 12.9934 7.25775 13.3883 7.74408 13.4352C8.0511 13.4645 8.28549 13.7235 8.28549 14.0329V14.0469C8.28549 14.3563 8.05111 14.6153 7.74408 14.6446C7.25775 14.6915 6.90033 15.0864 6.90033 15.5399C6.90033 16.0227 7.30581 16.4399 7.84017 16.4399C8.37336 16.4399 8.77884 16.0227 8.77884 15.5399C8.77884 15.2082 9.04837 14.9399 9.37884 14.9399H14.9219C15.2524 14.9399 15.5219 15.2083 15.5219 15.5399C15.5219 16.0227 15.9274 16.4399 16.4606 16.4399C16.995 16.4399 17.4004 16.0227 17.4004 15.5399C17.4004 15.0864 17.043 14.6915 16.5567 14.6446C16.2497 14.6153 16.0153 14.3563 16.0153 14.0469V14.0329C16.0153 13.7235 16.2497 13.4645 16.5567 13.4352C17.043 13.3884 17.4004 12.9934 17.4004 12.5399C17.4004 12.0571 16.995 11.6399 16.4606 11.6399C15.9274 11.6399 15.5219 12.0571 15.5219 12.5399C15.5219 12.8716 15.2524 13.1399 14.9219 13.1399H9.37884C9.04836 13.1399 8.77884 12.8716 8.77884 12.5399C8.77884 12.0571 8.37336 11.6399 7.84017 11.6399Z" fill="#C8C8C8"/>
</svg>
