<svg width="27" height="26" viewBox="0 0 27 26" fill="none" xmlns="http://www.w3.org/2000/svg">
<path d="M5.58131 17.7057C5.32979 20.7344 7.61443 23.2077 10.6536 23.2077H15.6735C19.09 23.2077 21.4375 20.4515 20.8716 17.0769C20.2743 13.5347 16.8578 10.6317 13.2631 10.6317C9.36459 10.6317 5.90619 13.8176 5.58131 17.7057Z" stroke="#141415" stroke-width="1.572" stroke-linecap="round" stroke-linejoin="round"/>
<path d="M11.9324 8.01161C13.3794 8.01161 14.5524 6.83859 14.5524 5.39161C14.5524 3.94462 13.3794 2.77161 11.9324 2.77161C10.4854 2.77161 9.31238 3.94462 9.31238 5.39161C9.31238 6.83859 10.4854 8.01161 11.9324 8.01161Z" stroke="#141415" stroke-width="1.572" stroke-linecap="round" stroke-linejoin="round"/>
<path d="M19.0903 9.26927C20.2479 9.26927 21.1863 8.33086 21.1863 7.17327C21.1863 6.01568 20.2479 5.07727 19.0903 5.07727C17.9327 5.07727 16.9943 6.01568 16.9943 7.17327C16.9943 8.33086 17.9327 9.26927 19.0903 9.26927Z" stroke="#141415" stroke-width="1.572" stroke-linecap="round" stroke-linejoin="round"/>
<path d="M22.9678 13.4613C23.8359 13.4613 24.5398 12.7575 24.5398 11.8893C24.5398 11.0211 23.8359 10.3173 22.9678 10.3173C22.0996 10.3173 21.3958 11.0211 21.3958 11.8893C21.3958 12.7575 22.0996 13.4613 22.9678 13.4613Z" stroke="#141415" stroke-width="1.572" stroke-linecap="round" stroke-linejoin="round"/>
<path d="M5.12029 11.3651C6.27788 11.3651 7.21629 10.4267 7.21629 9.2691C7.21629 8.11151 6.27788 7.1731 5.12029 7.1731C3.9627 7.1731 3.02429 8.11151 3.02429 9.2691C3.02429 10.4267 3.9627 11.3651 5.12029 11.3651Z" stroke="#141415" stroke-width="1.572" stroke-linecap="round" stroke-linejoin="round"/>
</svg>
