<svg width="24" height="24" viewBox="0 0 24 24" fill="none" xmlns="http://www.w3.org/2000/svg">
<path d="M9.88242 16.7353C12.0395 15.4873 14.2022 14.2394 16.3593 12.9971C16.6643 12.822 16.9692 12.6413 17.2798 12.4663C17.6468 12.2573 17.6468 11.704 17.2798 11.4894C15.1227 10.2414 12.9599 8.99348 10.8029 7.75117C10.4979 7.57612 10.193 7.39542 9.88242 7.22037C9.50973 7.00579 9.0354 7.27684 9.0354 7.706C9.0354 10.2019 9.0354 12.6921 9.0354 15.188C9.0354 15.5438 9.0354 15.8939 9.0354 16.2497C9.0354 16.9781 10.1648 16.9781 10.1648 16.2497C10.1648 13.7538 10.1648 11.2635 10.1648 8.7676C10.1648 8.41185 10.1648 8.06175 10.1648 7.706C9.88242 7.86976 9.60008 8.03352 9.31774 8.19163C11.4748 9.43958 13.6376 10.6875 15.7947 11.9298C16.0996 12.1049 16.4045 12.2856 16.7151 12.4606C16.7151 12.1331 16.7151 11.8112 16.7151 11.4837C14.558 12.7317 12.3953 13.9796 10.2382 15.2219C9.93325 15.397 9.62832 15.5777 9.31774 15.7527C8.6853 16.1198 9.25563 17.0967 9.88242 16.7353Z" fill="black"/>
<path d="M22.8306 11.9753C22.8137 16.2725 20.0862 20.2535 16.0262 21.7217C13.9764 22.4614 11.7233 22.5518 9.62266 21.9532C7.6011 21.3773 5.79976 20.1858 4.46146 18.5708C1.67193 15.2222 1.34442 10.3038 3.60315 6.59386C5.83929 2.91213 10.2664 0.947034 14.4959 1.80535C18.7254 2.65802 22.04 6.13082 22.712 10.4055C22.7967 10.925 22.8249 11.4501 22.8306 11.9753C22.8306 12.7037 23.96 12.7037 23.96 11.9753C23.9543 9.61491 23.2259 7.26583 21.8537 5.34027C20.4872 3.43729 18.5898 1.9804 16.3932 1.16726C11.8983 -0.492907 6.64679 0.941387 3.60879 4.63441C2.09544 6.47528 1.18066 8.72272 0.994312 11.1C0.807967 13.4717 1.38394 15.8885 2.6206 17.9214C3.81208 19.8808 5.60212 21.4902 7.6971 22.4332C9.9163 23.4327 12.4009 23.715 14.7895 23.2294C19.403 22.2977 23.1186 18.4183 23.8188 13.7597C23.9091 13.1668 23.96 12.5682 23.96 11.964C23.96 11.2468 22.8306 11.2468 22.8306 11.9753Z" fill="black"/>
</svg>
