<svg width="39" height="39" viewBox="0 0 39 39" fill="none" xmlns="http://www.w3.org/2000/svg">
<rect width="39" height="39" rx="8.75674" fill="#FFBC11"/>
<path d="M27.5 11.5V17.5H25.5V14.925L21.525 18.875C21.8417 19.3417 22.0833 19.8377 22.25 20.363C22.4167 20.8883 22.5 21.434 22.5 22C22.5 23.5333 21.9667 24.8333 20.9 25.9C19.8333 26.9667 18.5333 27.5 17 27.5C15.4667 27.5 14.1667 26.9667 13.1 25.9C12.0333 24.8333 11.5 23.5333 11.5 22C11.5 20.4667 12.0333 19.1667 13.1 18.1C14.1667 17.0333 15.4667 16.5 17 16.5C17.55 16.5 18.0917 16.579 18.625 16.737C19.1583 16.895 19.65 17.141 20.1 17.475L24.075 13.5H21.5V11.5H27.5ZM17 18.5C16.0333 18.5 15.2083 18.8417 14.525 19.525C13.8417 20.2083 13.5 21.0333 13.5 22C13.5 22.9667 13.8417 23.7917 14.525 24.475C15.2083 25.1583 16.0333 25.5 17 25.5C17.9667 25.5 18.7917 25.1583 19.475 24.475C20.1583 23.7917 20.5 22.9667 20.5 22C20.5 21.0333 20.1583 20.2083 19.475 19.525C18.7917 18.8417 17.9667 18.5 17 18.5Z" fill="white"/>
</svg>
